<mxfile host="app.diagrams.net" modified="2021-10-08T19:14:36.737Z" agent="5.0 (X11; Linux x86_64) AppleWebKit/537.36 (KHTML, like Gecko) Chrome/94.0.4606.71 Safari/537.36" etag="7rB9dw5qlgAIy8HVLkv6" version="14.6.13" type="github">
  <diagram id="C5RBs43oDa-KdzZeNtuy" name="Page-1">
    <mxGraphModel dx="948" dy="527" grid="0" gridSize="1" guides="1" tooltips="1" connect="1" arrows="1" fold="1" page="1" pageScale="1" pageWidth="827" pageHeight="583" background="#DAD2D8" math="0" shadow="0">
      <root>
        <mxCell id="WIyWlLk6GJQsqaUBKTNV-0" />
        <mxCell id="WIyWlLk6GJQsqaUBKTNV-1" parent="WIyWlLk6GJQsqaUBKTNV-0" />
        <mxCell id="jDeEO1EbjAMmWJ9yfhfQ-47" value="" style="rounded=0;whiteSpace=wrap;html=1;strokeWidth=1;fillColor=#FAE5C7;strokeColor=#0F8B8D;fontColor=#143642;sketch=1;" vertex="1" parent="WIyWlLk6GJQsqaUBKTNV-1">
          <mxGeometry x="432" y="376.5" width="225" height="103.5" as="geometry" />
        </mxCell>
        <mxCell id="jDeEO1EbjAMmWJ9yfhfQ-46" value="" style="rounded=0;whiteSpace=wrap;html=1;strokeWidth=1;fillColor=#FAE5C7;strokeColor=#0F8B8D;fontColor=#143642;sketch=1;" vertex="1" parent="WIyWlLk6GJQsqaUBKTNV-1">
          <mxGeometry x="90" y="376.5" width="234" height="103.5" as="geometry" />
        </mxCell>
        <mxCell id="jDeEO1EbjAMmWJ9yfhfQ-23" value="&lt;b&gt;&lt;font style=&quot;font-size: 14px&quot;&gt;vinyl&lt;/font&gt;&lt;/b&gt;" style="text;html=1;strokeColor=none;fillColor=none;align=center;verticalAlign=middle;whiteSpace=wrap;fontColor=#143642;sketch=1;" vertex="1" parent="WIyWlLk6GJQsqaUBKTNV-1">
          <mxGeometry x="496.5" y="377.5" width="96" height="20" as="geometry" />
        </mxCell>
        <mxCell id="jDeEO1EbjAMmWJ9yfhfQ-24" value="&lt;span style=&quot;font-size: 14px&quot;&gt;&lt;b&gt;memtx&lt;/b&gt;&lt;/span&gt;" style="text;html=1;strokeColor=none;fillColor=none;align=center;verticalAlign=middle;whiteSpace=wrap;fontColor=#143642;sketch=1;" vertex="1" parent="WIyWlLk6GJQsqaUBKTNV-1">
          <mxGeometry x="162.37417085427134" y="376.5" width="89.24623115577889" height="22" as="geometry" />
        </mxCell>
        <mxCell id="jDeEO1EbjAMmWJ9yfhfQ-49" style="edgeStyle=orthogonalEdgeStyle;rounded=0;orthogonalLoop=1;jettySize=auto;html=1;exitX=0.5;exitY=0;exitDx=0;exitDy=0;entryX=0.5;entryY=1;entryDx=0;entryDy=0;endArrow=blockThin;endFill=1;strokeWidth=1;strokeColor=#A8201A;fontColor=#143642;labelBackgroundColor=#DAD2D8;sketch=1;" edge="1" parent="WIyWlLk6GJQsqaUBKTNV-1" source="jDeEO1EbjAMmWJ9yfhfQ-47" target="jDeEO1EbjAMmWJ9yfhfQ-5">
          <mxGeometry x="90" y="128" as="geometry" />
        </mxCell>
        <mxCell id="jDeEO1EbjAMmWJ9yfhfQ-48" style="edgeStyle=orthogonalEdgeStyle;rounded=0;orthogonalLoop=1;jettySize=auto;html=1;entryX=0.5;entryY=1;entryDx=0;entryDy=0;endArrow=blockThin;endFill=1;strokeWidth=1;strokeColor=#A8201A;fontColor=#143642;labelBackgroundColor=#DAD2D8;sketch=1;" edge="1" parent="WIyWlLk6GJQsqaUBKTNV-1" source="jDeEO1EbjAMmWJ9yfhfQ-46" target="jDeEO1EbjAMmWJ9yfhfQ-5">
          <mxGeometry x="90" y="128" as="geometry" />
        </mxCell>
        <mxCell id="jDeEO1EbjAMmWJ9yfhfQ-33" value="" style="line;strokeWidth=1;html=1;perimeter=backbonePerimeter;points=[];outlineConnect=0;fillColor=#FAE5C7;strokeColor=#0F8B8D;fontColor=#143642;labelBackgroundColor=#DAD2D8;sketch=1;" vertex="1" parent="WIyWlLk6GJQsqaUBKTNV-1">
          <mxGeometry x="90" y="398.5" width="234" height="10" as="geometry" />
        </mxCell>
        <mxCell id="jDeEO1EbjAMmWJ9yfhfQ-41" value="&lt;font&gt;&lt;font style=&quot;font-size: 12px&quot;&gt;memtx_engine_begin_initial_recovery(): int&lt;/font&gt;&lt;br&gt;&lt;font style=&quot;font-size: 12px&quot;&gt;memtx_engine_begin_final_recovery(): int&lt;/font&gt;&lt;br&gt;&lt;span style=&quot;font-size: 14px&quot;&gt;....&lt;/span&gt;&lt;br&gt;&lt;/font&gt;" style="text;html=1;strokeColor=none;fillColor=none;align=left;verticalAlign=middle;whiteSpace=wrap;fontColor=#143642;sketch=1;" vertex="1" parent="WIyWlLk6GJQsqaUBKTNV-1">
          <mxGeometry x="90" y="421" width="235.35" height="59" as="geometry" />
        </mxCell>
        <mxCell id="jDeEO1EbjAMmWJ9yfhfQ-5" value="" style="whiteSpace=wrap;html=1;fillColor=#FAE5C7;strokeColor=#0F8B8D;fontColor=#143642;sketch=1;" vertex="1" parent="WIyWlLk6GJQsqaUBKTNV-1">
          <mxGeometry x="290" y="128" width="188" height="207" as="geometry" />
        </mxCell>
        <mxCell id="jDeEO1EbjAMmWJ9yfhfQ-4" value="&lt;font style=&quot;font-size: 14px&quot;&gt;&quot;abstract&quot;&lt;/font&gt;&lt;br&gt;&lt;b&gt;&lt;font style=&quot;font-size: 15px&quot;&gt;engine&lt;/font&gt;&lt;/b&gt;" style="text;html=1;strokeColor=none;fillColor=none;align=center;verticalAlign=middle;whiteSpace=wrap;fontColor=#143642;sketch=1;" vertex="1" parent="WIyWlLk6GJQsqaUBKTNV-1">
          <mxGeometry x="336" y="144" width="96" height="32" as="geometry" />
        </mxCell>
        <mxCell id="jDeEO1EbjAMmWJ9yfhfQ-7" value="&lt;font style=&quot;font-size: 14px&quot;&gt;&lt;span&gt;begin_initial_recovery(): int&lt;/span&gt;&lt;br&gt;begin_final_recovery(): int&lt;br&gt;....&lt;br&gt;&lt;/font&gt;" style="text;html=1;strokeColor=none;fillColor=none;align=left;verticalAlign=middle;whiteSpace=wrap;fontColor=#143642;sketch=1;" vertex="1" parent="WIyWlLk6GJQsqaUBKTNV-1">
          <mxGeometry x="297" y="274" width="189" height="59" as="geometry" />
        </mxCell>
        <mxCell id="jDeEO1EbjAMmWJ9yfhfQ-9" value="&lt;font style=&quot;font-size: 14px&quot;&gt;id: uint32_t&lt;br&gt;flags: uint32_t&lt;br&gt;....&lt;br&gt;&lt;/font&gt;" style="text;html=1;strokeColor=none;fillColor=none;align=left;verticalAlign=middle;whiteSpace=wrap;fontColor=#143642;sketch=1;" vertex="1" parent="WIyWlLk6GJQsqaUBKTNV-1">
          <mxGeometry x="297.5" y="197" width="189" height="59" as="geometry" />
        </mxCell>
        <mxCell id="jDeEO1EbjAMmWJ9yfhfQ-34" value="" style="line;strokeWidth=1;html=1;perimeter=backbonePerimeter;points=[];outlineConnect=0;fillColor=#FAE5C7;strokeColor=#0F8B8D;fontColor=#143642;labelBackgroundColor=#DAD2D8;sketch=1;" vertex="1" parent="WIyWlLk6GJQsqaUBKTNV-1">
          <mxGeometry x="432" y="398.5" width="225" height="10" as="geometry" />
        </mxCell>
        <mxCell id="jDeEO1EbjAMmWJ9yfhfQ-40" value="&lt;font&gt;&lt;font style=&quot;font-size: 12px&quot;&gt;vinyl_engine_begin_initial_recovery(): int&lt;/font&gt;&lt;br&gt;&lt;font style=&quot;font-size: 12px&quot;&gt;vinyl_engine_begin_final_recovery(): int&lt;/font&gt;&lt;br&gt;&lt;span style=&quot;font-size: 14px&quot;&gt;....&lt;/span&gt;&lt;br&gt;&lt;/font&gt;" style="text;html=1;strokeColor=none;fillColor=none;align=left;verticalAlign=middle;whiteSpace=wrap;fontColor=#143642;sketch=1;" vertex="1" parent="WIyWlLk6GJQsqaUBKTNV-1">
          <mxGeometry x="433" y="421" width="225" height="59" as="geometry" />
        </mxCell>
        <mxCell id="jDeEO1EbjAMmWJ9yfhfQ-51" value="" style="line;strokeWidth=1;html=1;perimeter=backbonePerimeter;points=[];outlineConnect=0;rounded=0;fontColor=#143642;fillColor=#FAE5C7;labelBackgroundColor=#DAD2D8;strokeColor=#0F8B8D;sketch=1;" vertex="1" parent="WIyWlLk6GJQsqaUBKTNV-1">
          <mxGeometry x="290" y="179" width="188" height="10" as="geometry" />
        </mxCell>
        <mxCell id="jDeEO1EbjAMmWJ9yfhfQ-52" value="" style="line;strokeWidth=1;html=1;perimeter=backbonePerimeter;points=[];outlineConnect=0;rounded=0;fontColor=#143642;fillColor=#FAE5C7;labelBackgroundColor=#DAD2D8;strokeColor=#0F8B8D;sketch=1;" vertex="1" parent="WIyWlLk6GJQsqaUBKTNV-1">
          <mxGeometry x="290" y="251" width="188" height="10" as="geometry" />
        </mxCell>
      </root>
    </mxGraphModel>
  </diagram>
</mxfile>
